<svg xmlns="http://www.w3.org/2000/svg" viewBox="0 0 600 800">
<defs><linearGradient id="g" x1="0" y1="0" x2="1" y2="1"><stop offset="0" stop-color="#130f2d"/><stop offset="1" stop-color="#ffe694"/></linearGradient><filter id="blur"><feGaussianBlur stdDeviation="18"/></filter></defs>
<rect width="600" height="800" fill="url(#g)"/>
<circle cx="220" cy="222" r="150" fill="rgba(255,255,255,.35)" filter="url(#blur)"/>
<path d="M0 532 C 160 410, 290 612, 600 460 L600 800 L0 800Z" fill="rgba(0,0,0,.45)"/>
<g fill="rgba(255,255,255,.75)">
<circle cx="40" cy="172" r="6"/><circle cx="40" cy="310" r="6"/><circle cx="40" cy="448" r="6"/><circle cx="40" cy="586" r="6"/><circle cx="40" cy="724" r="6"/><circle cx="86" cy="126" r="7"/><circle cx="86" cy="264" r="2"/><circle cx="86" cy="402" r="5"/><circle cx="86" cy="540" r="8"/><circle cx="86" cy="678" r="3"/><circle cx="132" cy="80" r="6"/><circle cx="132" cy="218" r="4"/><circle cx="132" cy="356" r="2"/><circle cx="132" cy="494" r="8"/><circle cx="132" cy="632" r="6"/><circle cx="132" cy="770" r="4"/><circle cx="178" cy="172" r="4"/><circle cx="178" cy="310" r="5"/><circle cx="178" cy="448" r="6"/><circle cx="178" cy="586" r="7"/><circle cx="178" cy="724" r="8"/><circle cx="224" cy="126" r="2"/><circle cx="224" cy="264" r="6"/><circle cx="224" cy="402" r="2"/><circle cx="224" cy="540" r="6"/><circle cx="224" cy="678" r="2"/><circle cx="270" cy="80" r="6"/><circle cx="270" cy="218" r="5"/><circle cx="270" cy="356" r="4"/><circle cx="270" cy="494" r="3"/><circle cx="270" cy="632" r="2"/><circle cx="270" cy="770" r="9"/><circle cx="316" cy="172" r="2"/><circle cx="316" cy="310" r="4"/><circle cx="316" cy="448" r="6"/><circle cx="316" cy="586" r="8"/><circle cx="316" cy="724" r="2"/><circle cx="362" cy="126" r="5"/><circle cx="362" cy="264" r="2"/><circle cx="362" cy="402" r="7"/><circle cx="362" cy="540" r="4"/><circle cx="362" cy="678" r="9"/><circle cx="408" cy="80" r="6"/><circle cx="408" cy="218" r="6"/><circle cx="408" cy="356" r="6"/><circle cx="408" cy="494" r="6"/><circle cx="408" cy="632" r="6"/><circle cx="408" cy="770" r="6"/><circle cx="454" cy="172" r="8"/><circle cx="454" cy="310" r="3"/><circle cx="454" cy="448" r="6"/><circle cx="454" cy="586" r="9"/><circle cx="454" cy="724" r="4"/><circle cx="500" cy="126" r="8"/><circle cx="500" cy="264" r="6"/><circle cx="500" cy="402" r="4"/><circle cx="500" cy="540" r="2"/><circle cx="500" cy="678" r="8"/><circle cx="546" cy="80" r="6"/><circle cx="546" cy="218" r="7"/><circle cx="546" cy="356" r="8"/><circle cx="546" cy="494" r="9"/><circle cx="546" cy="632" r="2"/><circle cx="546" cy="770" r="3"/><circle cx="592" cy="172" r="6"/><circle cx="592" cy="310" r="2"/><circle cx="592" cy="448" r="6"/><circle cx="592" cy="586" r="2"/><circle cx="592" cy="724" r="6"/>
</g>
<text x="42" y="720" fill="white" font-family="Arial" font-size="34" font-weight="700">PROJECT 04</text>
</svg>