<svg xmlns="http://www.w3.org/2000/svg" viewBox="0 0 800 500" role="img" aria-label="Locative media illustration">
    <rect width="800" height="500" rx="34" fill="#f4ecd8"/>
    <rect x="18" y="18" width="764" height="464" rx="27" fill="none" stroke="#2f513c" stroke-opacity=".14" stroke-width="2"/>
    
<rect width="800" height="500" fill="#9eb6b0"/>
<rect x="275" y="45" width="250" height="410" rx="45" fill="#2f513c"/>
<rect x="292" y="78" width="216" height="320" rx="28" fill="#f4ecd8"/>
<path d="M315 350 C335 300 370 315 386 265 C405 205 450 245 474 175 C488 135 472 117 455 102" fill="none" stroke="#98583f" stroke-width="12" stroke-linecap="round"/>
<g fill="#c99a58"><circle cx="386" cy="265" r="15"/><circle cx="474" cy="175" r="15"/></g>
<path d="M111 210c75-70 125-66 180-15M97 260c85-85 130-75 190-20M509 195c55-50 110-50 175 10M515 242c66-63 119-55 180 18" fill="none" stroke="#f4ecd8" stroke-width="8" stroke-linecap="round" opacity=".8"/>

    </svg>