<svg xmlns="http://www.w3.org/2000/svg" viewBox="0 0 800 500" role="img" aria-label="Green New Deal Simulator placeholder">
    <rect width="800" height="500" rx="34" fill="#f4ecd8"/>
    <rect x="18" y="18" width="764" height="464" rx="27" fill="none" stroke="#2f513c" stroke-opacity=".14" stroke-width="2"/>
    
<rect width="800" height="500" fill="#9eb6b0"/>
<g fill="#f4ecd8" stroke="#2f513c" stroke-width="5"><rect x="70" y="90" width="180" height="125" rx="20"/><rect x="310" y="55" width="180" height="125" rx="20"/><rect x="550" y="100" width="180" height="125" rx="20"/><rect x="190" y="300" width="180" height="125" rx="20"/><rect x="440" y="300" width="180" height="125" rx="20"/></g>
<g fill="none" stroke="#98583f" stroke-width="9"><path d="M250 150H310M490 150H550M400 180V300M250 215L270 300M650 225L570 300"/></g>
<g fill="#2f513c"><circle cx="160" cy="152" r="30"/><circle cx="400" cy="118" r="30"/><circle cx="640" cy="163" r="30"/><circle cx="280" cy="360" r="30"/><circle cx="530" cy="360" r="30"/></g>

    </svg>